<?xml version="1.0" encoding="UTF-8" standalone="no"?>
<svg
   xmlns:dc="http://purl.org/dc/elements/1.1/"
   xmlns:cc="http://creativecommons.org/ns#"
   xmlns:rdf="http://www.w3.org/1999/02/22-rdf-syntax-ns#"
   xmlns:svg="http://www.w3.org/2000/svg"
   xmlns="http://www.w3.org/2000/svg"
   xmlns:sodipodi="http://sodipodi.sourceforge.net/DTD/sodipodi-0.dtd"
   xmlns:inkscape="http://www.inkscape.org/namespaces/inkscape"
   width="97.2mm"
   height="39mm"
   version="1.1"
   viewBox="0 0 97.2 39"
   id="svg68"
   sodipodi:docname="logo.svg"
   inkscape:version="0.92.3 (2405546, 2018-03-11)">
  <metadata
     id="metadata74">
    <rdf:RDF>
      <cc:Work
         rdf:about="">
        <dc:format>image/svg+xml</dc:format>
        <dc:type
           rdf:resource="http://purl.org/dc/dcmitype/StillImage" />
        <dc:title />
      </cc:Work>
    </rdf:RDF>
  </metadata>
  <defs
     id="defs72" />
  <sodipodi:namedview
     pagecolor="#ffffff"
     bordercolor="#666666"
     borderopacity="1"
     objecttolerance="10"
     gridtolerance="10"
     guidetolerance="10"
     inkscape:pageopacity="0"
     inkscape:pageshadow="2"
     inkscape:window-width="3440"
     inkscape:window-height="1401"
     id="namedview70"
     showgrid="false"
     inkscape:pagecheckerboard="true"
     inkscape:zoom="5.6568542"
     inkscape:cx="182.1366"
     inkscape:cy="80.937891"
     inkscape:window-x="0"
     inkscape:window-y="0"
     inkscape:window-maximized="1"
     inkscape:current-layer="g66"
     inkscape:measure-start="80.9637,-87.6812"
     inkscape:measure-end="0,0" />
  <g
     transform="translate(-95.163545,-34.813541)"
     id="g66">
    <path
       d="m 99.855133,71.448143 c -0.750488,-0.33476 -1.599004,-2.732805 -2.450038,-6.906532 -0.820454,-4.042872 -1.137668,-7.362314 -1.046835,-10.831125 0.05942,-2.269221 0.302808,-3.923417 0.769213,-5.231667 0.936072,-2.626395 2.898467,-4.105534 4.622687,-3.480185 1.54587,0.559658 3.0438,2.950689 3.56239,5.685231 0.10551,0.554941 0.12175,0.889471 0.0965,1.963184 -0.0278,1.169677 -0.0455,1.329266 -0.19855,1.77541 -0.17658,0.516556 -0.42383,1.019256 -0.66339,1.343095 -0.22924,0.312107 0.62094,-0.409886 1.2276,-1.03822 1.61476,-1.68831 2.53868,-3.354685 3.06665,-5.561641 0.23907,-0.994081 0.50786,-2.777657 0.60758,-4.025474 l 0.0663,-0.828552 -0.42003,-0.348115 c -0.4357,-0.382291 -0.68379,-0.706674 -0.92582,-1.152938 -0.14603,-0.531187 -0.12805,-0.430034 -0.1388,-1.069846 -0.0116,-0.728896 0.16231,-0.906425 0.27735,-1.289029 0.19459,-0.364028 0.26157,-0.479315 0.46812,-0.573942 0.52546,-0.240325 0.99637,0.113521 1.17728,0.883122 0.0685,0.294897 0.0829,0.761436 0.0574,1.85214 l -0.0343,1.459606 0.55356,0.444642 c 0.65249,0.52426 1.22025,1.152338 1.44839,1.608466 0.24549,0.481591 0.33627,1.179204 0.34478,2.60992 0.0174,2.951473 0.17269,4.025909 0.76923,5.311965 0.55291,1.194883 1.45791,2.008853 2.49182,2.256002 0.87389,0.205947 1.80024,0.01354 2.3938,-0.496507 l 0.2722,-0.232956 -0.30537,-0.48616 c -0.59829,-0.951988 -0.75207,-1.650252 -0.71246,-3.23976 0.0349,-1.399573 0.14269,-2.056979 0.52289,-3.197418 0.26823,-0.807256 0.72993,-1.401372 1.16968,-1.499895 0.30386,-0.06786 0.75622,0.03951 1.03394,0.24515 0.30518,0.226066 0.64094,0.775042 0.77326,1.260674 0.22617,0.837206 0.21178,2.456414 -0.0309,3.580427 -0.21508,0.99371 -0.63233,1.914103 -1.2529,2.768149 -0.33827,0.464304 -0.34471,0.481144 -0.22227,0.580382 0.30171,0.243981 0.72699,0.392165 1.24908,0.433846 0.9623,0.07771 1.4946,-0.15593 2.51004,-1.114677 1.7434,-1.634923 2.60393,-3.172914 3.71444,-6.615044 0.98959,-3.065147 1.06006,-3.273374 1.22517,-3.619169 0.11764,-0.252007 0.19602,-0.341986 0.29499,-0.339396 0.21793,0.0056 0.30354,0.251033 0.4309,1.231703 0.22141,1.70638 0.72035,3.51006 1.81919,6.549875 0.30496,0.845273 0.58431,1.675868 0.62211,1.836916 0.0376,0.167037 0.0852,0.305337 0.10603,0.30588 0.0208,5.43e-4 0.25116,-0.117465 0.51203,-0.261688 1.42114,-0.789068 2.79664,-2.127511 3.55198,-3.468217 l 0.2769,-0.488919 0.0655,-1.18869 c 0.096,-1.738081 0.35589,-2.971701 0.69566,-3.30292 0.18568,-0.1762 0.29003,-0.187473 0.46553,-0.05202 0.26375,0.203974 5.4e-4,2.600903 -0.41989,3.810314 -0.14715,0.424294 -0.16563,0.556855 -0.12875,0.943954 0.2167,2.306473 1.76231,4.137559 4.06556,4.80808 0.57777,0.169183 1.67418,0.244909 2.3765,0.164268 l 0.593,-0.06831 -0.24161,-0.132369 c -0.46946,-0.256376 -1.12457,-0.986777 -1.38999,-1.546917 -0.45,-0.961109 -0.4554,-2.282692 -0.0144,-3.661663 0.49696,-1.557525 1.97366,-3.169422 3.05878,-3.351078 0.94043,-0.156436 1.75784,0.10595 2.38069,0.769582 l 0.39913,0.420591 0.0643,-0.768584 c 0.29712,-3.553439 0.8425,-6.120044 1.82483,-8.565165 0.77581,-1.930355 1.61067,-2.678757 2.10009,-1.885673 0.098,0.158616 0.1051,0.340868 0.0586,1.572071 -0.20904,5.556433 -1.01418,11.377351 -1.93856,14.054101 l -0.25654,0.742519 0.1567,0.281198 c 0.4319,0.773572 1.32634,1.685297 1.98746,2.032723 1.09537,0.573868 2.49223,0.712482 3.78149,0.376115 0.54693,-0.143732 0.54267,-0.133839 0.29315,-0.690561 -0.31567,-0.704505 -0.37087,-1.040067 -0.33948,-2.049588 0.0586,-1.849117 0.77128,-4.011196 1.80343,-5.454674 0.64177,-0.899507 1.16389,-1.27997 1.75369,-1.264525 0.56583,0.0148 0.92568,0.292331 1.08833,0.842777 0.0848,0.279313 0.0901,0.527544 0.033,1.561403 -0.0825,1.498354 -0.28484,2.473392 -0.77693,3.730972 -0.45574,1.168449 -1.10802,2.201729 -1.79506,2.843965 l -0.33228,0.311408 0.1937,0.167129 c 0.26807,0.230095 0.90604,0.544903 1.34313,0.661384 0.56226,0.150771 1.77668,0.15056 2.4809,-9.3e-4 1.13673,-0.242326 2.41439,-0.900107 3.24471,-1.665633 0.69915,-0.646919 0.69813,-0.644948 0.64153,-1.653764 -0.0836,-1.47271 0.10014,-3.518604 0.43053,-4.790391 0.23253,-0.896221 0.42458,-1.23931 0.69349,-1.232269 0.2879,0.0075 0.29897,0.08156 0.2513,1.787191 -0.0562,2.039221 -0.17755,3.426556 -0.37091,4.231762 -0.12573,0.522876 -0.14095,0.684534 -0.0892,0.989998 0.0706,0.418994 0.24315,1.066729 0.37,1.380157 l 0.0868,0.217347 0.14506,-0.344322 c 0.0798,-0.18898 0.23388,-0.565072 0.34199,-0.835333 0.45169,-1.128563 1.3439,-2.805793 1.91545,-3.62111 0.17661,-0.250464 0.37037,-0.544493 0.43023,-0.652962 0.20486,-0.373764 1.13575,-1.350734 1.51217,-1.590962 0.51675,-0.327585 0.82895,-0.407439 1.15821,-0.298784 0.14283,0.04685 0.30171,0.129943 0.35331,0.184313 0.22585,0.237992 0.34689,0.925396 0.43864,2.502339 0.12835,2.204135 0.31372,3.109286 0.83215,4.093195 0.54009,1.034493 0.95105,1.38537 1.63357,1.413246 0.35575,0.01332 0.45351,-0.01412 0.87075,-0.247291 0.81827,-0.457736 1.5251,-1.320529 2.34541,-2.84957 l 0.21144,-0.396591 -0.077,-0.692272 c -0.15556,-1.394561 -0.17708,-2.405471 -0.0897,-4.13378 0.0478,-0.945074 0.10693,-1.817824 0.13111,-1.927229 l 0.0444,-0.213906 -1.38953,-0.03639 c -1.27955,-0.03352 -1.39925,-0.04675 -1.45638,-0.157176 -0.13877,-0.277729 -0.0105,-0.308326 1.33881,-0.319063 0.70239,-0.0054 1.34075,-0.01094 1.42082,-0.01248 0.12009,-0.0018 0.15012,-0.04087 0.15422,-0.19803 0.0127,-0.478835 0.41981,-2.469857 0.64027,-3.134314 0.41911,-1.25946 1.1017,-2.341964 1.62858,-2.598259 0.4316,-0.208773 0.93658,-0.04791 1.19048,0.379293 0.14556,0.247896 0.14743,0.290959 0.1059,1.803388 -0.0295,1.089601 -0.0863,1.848376 -0.18919,2.525913 -0.0807,0.537077 -0.12807,0.994987 -0.10686,1.017552 0.0215,0.02286 0.75768,0.02185 1.64062,-0.0023 1.35142,-0.03694 1.60133,-0.02971 1.64929,0.04818 0.0729,0.121952 0.0704,0.147886 -0.0303,0.272296 -0.0707,0.08777 -0.37016,0.116349 -1.73502,0.168641 -0.90921,0.03463 -1.66236,0.0685 -1.66253,0.07549 -0.006,0.0068 -0.0838,0.338919 -0.17336,0.736714 -0.38263,1.700567 -1.05078,3.683757 -1.7353,5.14634 -0.22671,0.482239 -0.41235,0.924552 -0.41384,0.981533 -0.002,0.05736 0.0783,0.463197 0.17743,0.902934 0.42661,1.891816 1.00476,2.88729 1.88528,3.260468 0.45126,0.186877 0.90214,0.197682 1.19967,0.02843 0.27828,-0.159769 0.27419,-0.155876 1.34908,-1.47519 2.66603,-3.251337 3.65549,-4.745946 4.75928,-7.167884 0.26961,-0.593146 0.53176,-1.206494 0.58192,-1.365234 0.11324,-0.351157 0.28296,-0.452749 0.50205,-0.300961 0.16899,0.117463 0.17725,0.14569 0.26924,0.911361 0.0335,0.27797 0.17865,0.971008 0.32383,1.539004 0.68906,2.718968 0.9874,5.077597 0.92619,7.416795 -0.0383,1.569541 -0.0782,1.698528 -0.6124,1.954639 -0.26039,0.126228 -0.3738,0.140264 -0.86608,0.106363 -0.46731,-0.03234 -0.61834,-0.0715 -0.86345,-0.223679 -0.37502,-0.232898 -0.78261,-0.71173 -1.12584,-1.319923 -0.28191,-0.503552 -0.89589,-1.964126 -0.89169,-2.12407 0.005,-0.146954 0.23324,-0.234977 0.3527,-0.136815 0.0553,0.04555 0.24355,0.440526 0.41916,0.878275 0.51929,1.294035 1.11409,2.1499 1.63947,2.333714 0.27451,0.09862 0.84382,0.05562 1.06246,-0.08021 0.1403,-0.08586 0.15278,-0.14205 0.16847,-0.741844 0.027,-1.029647 -0.14931,-3.275021 -0.4033,-5.11232 -0.0629,-0.456801 -0.26937,-1.517572 -0.4593,-2.362833 l -0.3451,-1.529557 -0.10503,0.229331 c -0.92937,2.026364 -2.04378,3.937849 -2.95332,5.054441 -0.17366,0.213527 -0.4513,0.578376 -0.61644,0.811131 -0.16513,0.231758 -0.41163,0.553415 -0.54788,0.713903 -0.13626,0.160489 -0.50657,0.626954 -0.82148,1.038853 -1.20148,1.569087 -1.54817,1.820097 -2.42787,1.797062 -0.96666,-0.0253 -1.7377,-0.492658 -2.32411,-1.401319 -0.32767,-0.513753 -0.74168,-1.549946 -0.85867,-2.163219 l -0.0652,-0.333817 -0.3028,0.485239 c -0.16704,0.26672 -0.39898,0.642776 -0.51706,0.835752 -0.45461,0.743355 -1.62709,1.778016 -2.24212,1.961981 -0.35601,0.110718 -0.91721,0.110028 -1.31043,-8.13e-4 -1.02288,-0.285874 -2.0764,-2.075065 -2.35628,-3.993038 -0.0563,-0.388593 -0.10232,-1.323155 -0.11102,-2.2537 -0.01,-0.873512 -0.0453,-1.701764 -0.0817,-1.842772 -0.0569,-0.210557 -0.0963,-0.250612 -0.24943,-0.254616 -0.41685,-0.0109 -1.27914,0.71476 -1.82075,1.532863 -0.10405,0.15733 -0.33208,0.495476 -0.50685,0.751991 -0.26947,0.396081 -0.65507,1.063236 -0.99876,1.73447 -0.38989,0.755041 -1.01525,2.174158 -1.01865,2.304113 -0.005,0.153948 -0.45496,1.138481 -0.58457,1.275134 -0.41981,0.445164 -0.981,-0.127723 -1.35418,-1.385924 l -0.1021,-0.341788 -0.41077,0.405387 c -0.80921,0.80009 -2.23295,1.612097 -3.41224,1.951345 -1.35061,0.387779 -3.06806,0.267779 -4.07391,-0.285741 -0.10455,-0.05757 -0.36974,-0.244762 -0.58935,-0.415569 l -0.399,-0.31055 -0.52468,0.210337 c -0.88963,0.356834 -2.09279,0.461374 -3.16835,0.277157 -1.28467,-0.220705 -2.43567,-0.961088 -3.33491,-2.148034 l -0.35097,-0.464347 -0.25816,0.308348 c -0.98508,1.174617 -2.19507,1.69312 -3.68195,1.554151 -0.52196,-0.04628 -0.61732,-0.03366 -1.26485,0.167947 -0.6404,0.198305 -0.78496,0.217527 -1.62638,0.223503 -1.53079,0.0096 -2.63347,-0.285033 -3.68566,-0.978815 -1.29799,-0.85827 -2.20531,-2.118454 -2.53906,-3.507646 l -0.13333,-0.561703 -0.41085,0.599471 c -0.77785,1.130005 -2.387,2.528361 -3.62334,3.136208 l -0.302,0.149144 -0.0119,0.384815 c -0.0105,0.328835 -0.0359,0.402202 -0.17519,0.501585 -0.34761,0.247987 -1.12529,0.187609 -1.95672,-0.151171 -0.34245,-0.139013 -0.55351,-0.17855 -1.03534,-0.191169 -1.10962,-0.02975 -2.44154,-0.356034 -3.03173,-0.738612 -0.23898,-0.156309 -0.42129,-0.491198 -0.36743,-0.675851 0.0824,-0.284941 0.25505,-0.342442 0.86888,-0.290355 0.67377,0.05693 1.472,0.325643 2.43943,0.819138 0.61399,0.314181 0.63086,0.318623 1.15252,0.301273 0.29635,-0.01022 0.7474,-0.08248 1.01459,-0.162497 l 0.48393,-0.144382 -0.68136,-1.828463 c -1.05633,-2.828631 -1.5982,-4.673449 -1.84648,-6.270495 -0.0487,-0.308384 -0.0981,-0.570762 -0.11078,-0.583098 -0.023,-0.02421 -0.0875,0.173769 -0.73094,2.241635 -1.25668,4.058504 -2.04439,5.488374 -4.02449,7.377189 -0.69145,0.657124 -0.8955,0.809834 -1.34705,1.015086 -0.46975,0.213776 -0.60862,0.245151 -1.12714,0.258583 -0.73977,0.01924 -1.3071,-0.12886 -1.78851,-0.463977 -0.18664,-0.130931 -0.35287,-0.238319 -0.36887,-0.238737 -0.0158,-4.15e-4 -0.18639,0.127164 -0.38057,0.284134 -0.8881,0.717999 -2.0039,0.886847 -3.20373,0.482302 -1.41794,-0.479281 -2.52939,-1.966885 -2.95817,-3.928782 -0.19437,-0.905397 -0.24445,-1.66695 -0.25404,-3.897996 -0.008,-1.700771 -0.0215,-1.921239 -0.14252,-2.274512 -0.17405,-0.496726 -0.59508,-1.035931 -1.20978,-1.5522 l -0.49333,-0.414054 -0.0523,0.28973 c -0.0287,0.159301 -0.0594,0.471612 -0.0679,0.694464 -0.0256,0.676558 -0.33142,2.762271 -0.5334,3.637284 -0.59614,2.595294 -1.85244,4.653112 -4.00302,6.557469 -1.34149,1.18529 -2.8256,2.086751 -3.71027,2.253649 -0.21913,0.04046 -0.40822,0.07943 -0.41841,0.08667 -0.011,0.0076 0.001,0.26319 0.0321,0.56903 0.21075,2.266306 0.32588,6.12064 0.26294,8.829931 -0.0529,2.289417 -0.0618,2.399224 -0.21329,2.835409 -0.17864,0.518501 -0.45917,0.879279 -0.79823,1.029456 -0.27731,0.122784 -0.33928,0.12116 -0.646791,-0.01622 z m 0.555647,-0.475618 c 0.17333,-0.08708 0.37025,-0.463466 0.49289,-0.944423 0.19956,-0.783054 0.1989,-5.246621 -0.002,-9.13321 -0.081,-1.56267 -0.15727,-2.474974 -0.4603,-5.533955 -0.17659,-1.77523 -0.236,-2.677096 -0.22368,-3.377013 l 0.017,-0.95887 0.16495,0.0043 c 0.15795,0.004 0.16637,0.02656 0.20208,0.534463 0.0998,1.453116 0.20254,2.656212 0.34534,4.040423 0.20483,1.996046 0.19987,1.955902 0.29884,1.958496 0.047,0.0011 0.45967,-0.172026 0.91743,-0.386118 0.72612,-0.339107 0.90018,-0.453591 1.37422,-0.907338 0.90592,-0.863583 1.31642,-1.756143 1.41122,-3.084114 0.19171,-2.545835 -0.73471,-5.331071 -2.29984,-6.912583 -0.53693,-0.544241 -0.93349,-0.79571 -1.39736,-0.882881 -0.91379,-0.17298 -1.929891,0.352603 -2.747814,1.408554 -1.118895,1.471215 -1.599794,3.40932 -1.68958,6.838125 -0.09295,3.53878 0.230381,6.788355 1.076822,10.83191 0.636916,3.067733 1.311289,5.316178 1.850147,6.13056 0.244229,0.376524 0.395395,0.448506 0.659955,0.316385 z m 30.21914,-15.614346 c 0.10469,-0.02505 0.15129,-0.08577 0.15432,-0.201031 0.004,-0.12096 -0.0231,-0.154653 -0.0985,-0.128626 -0.0566,0.02004 -0.27428,0.08345 -0.48387,0.141381 l -0.38087,0.105065 0.26379,0.04932 c 0.39023,0.07304 0.38324,0.07255 0.54532,0.03379 z m -11.48436,-0.748883 c 0.36995,-0.490483 0.87297,-1.477654 1.03759,-2.033536 0.28531,-0.962851 0.40005,-2.670454 0.23814,-3.554994 -0.15951,-0.861471 -0.6141,-1.456574 -1.12192,-1.469873 -0.31691,-0.0082 -0.49864,0.131993 -0.73104,0.565058 -0.41543,0.774391 -0.65011,1.943648 -0.69064,3.453126 -0.0325,1.159539 0.0531,1.832006 0.30726,2.438868 0.18745,0.444059 0.51986,1.005951 0.59781,1.007993 0.0308,7.85e-4 0.19691,-0.184909 0.36895,-0.413482 z m 8.30167,0.04532 c -0.25355,-0.173695 -1.59561,-0.570964 -1.95549,-0.580387 -0.19693,-0.0054 0.001,0.12912 0.41188,0.277876 0.40925,0.148764 1.22144,0.343091 1.51105,0.361679 0.10886,0.0068 0.11512,-0.003 0.0347,-0.05821 z m 18.90427,0.08588 c 0.14592,-0.03339 0.40749,-0.128374 0.58171,-0.210844 0.37679,-0.178198 1.15273,-0.853116 1.392,-1.203973 l 0.16657,-0.249726 -0.24904,-0.612719 c -0.13722,-0.336707 -0.26688,-0.695213 -0.28826,-0.795808 -0.0585,-0.267627 -0.13108,-0.22752 -0.22838,0.126066 -0.1282,0.464792 -0.58409,1.295132 -0.98032,1.794932 -0.19237,0.241048 -0.58164,0.62799 -0.86285,0.861709 l -0.51329,0.424709 0.35909,-0.03673 c 0.19758,-0.02012 0.47883,-0.06401 0.62477,-0.09767 z m -1.72516,-0.208229 c 0.62998,-0.372637 1.33522,-0.945372 1.70687,-1.385794 0.77957,-0.927903 1.16066,-1.920276 1.20233,-3.129609 0.0182,-0.550704 -0.006,-0.869427 -0.0828,-1.152564 -0.3521,-1.299662 -1.04937,-1.948137 -2.109,-1.975885 -0.52588,-0.01176 -0.71356,0.04976 -1.24106,0.405652 -0.7057,0.475691 -1.52609,1.740648 -1.8035,2.783744 -0.58413,2.175475 -0.0311,3.740483 1.57425,4.442742 0.20965,0.09279 0.40471,0.169653 0.43268,0.171385 0.028,0.0018 0.17895,-0.07273 0.33543,-0.165277 z m 12.20215,0.07844 c 1.1663,-0.989808 2.14018,-3.035017 2.51896,-5.275879 0.13024,-0.770855 0.15133,-2.206796 0.0362,-2.439886 -0.22016,-0.454921 -0.63096,-0.544704 -1.08417,-0.236462 -0.764,0.524181 -1.73359,2.405446 -2.07668,4.047026 -0.16886,0.794863 -0.23867,2.734699 -0.11318,3.138123 0.10335,0.331819 0.39573,0.970692 0.44479,0.968976 0.0197,-4.84e-4 0.14452,-0.09433 0.27855,-0.207781 z m -7.26099,-4.641671 c 0.38576,-1.590447 0.71507,-3.432458 0.93062,-5.207423 0.47222,-3.898976 0.73906,-7.823335 0.55222,-8.138334 -0.0869,-0.148318 -0.37372,0.175278 -0.66279,0.747907 -0.45364,0.897432 -1.04913,2.703464 -1.34742,4.086128 -0.37997,1.750653 -0.5246,2.767215 -0.65322,4.584471 -0.18608,2.636032 -0.006,4.731468 0.49824,5.765049 l 0.0967,0.200603 0.16595,-0.491826 c 0.0912,-0.270722 0.28136,-0.964995 0.42144,-1.539525 z m 29.88825,0.840072 c 0.55803,-1.21581 1.38826,-3.73494 1.59803,-4.869839 l 0.0536,-0.287697 -0.75188,0.02451 c -1.21145,0.03931 -1.08942,-0.03653 -1.17103,0.787617 -0.10331,1.087668 -0.0945,4.999239 0.0115,4.891962 0.0123,-0.01158 0.1318,-0.258639 0.26446,-0.549267 z m -69.80097,-8.520092 c 0.002,-1.380453 -0.0487,-1.701854 -0.30008,-1.948523 -0.20085,-0.199325 -0.38176,-0.129038 -0.5609,0.217392 -0.31401,0.607988 -0.36441,1.500976 -0.11619,2.057663 0.12759,0.284439 0.75984,0.970223 0.89881,0.973862 0.0582,0.0015 0.0779,-0.32807 0.0786,-1.308388 z m 71.14951,2.863458 0.40577,-0.02429 0.13006,-0.80287 c 0.33987,-2.09182 0.39324,-4.091109 0.11871,-4.418406 -0.16504,-0.192385 -0.27973,-0.166381 -0.58378,0.136764 -0.38724,0.385996 -0.82128,1.298946 -1.07986,2.272513 -0.20396,0.75992 -0.47606,2.288321 -0.48332,2.718279 l -0.004,0.182991 0.54678,-0.02277 c 0.30043,-0.0125 0.72913,-0.03371 0.95155,-0.0471 z m -44.77942,-5.193968 c -0.14969,-0.243002 -0.017,-0.449597 0.26695,-0.415154 0.17549,0.02158 0.21259,0.05679 0.22653,0.212002 0.032,0.364968 -0.3063,0.504155 -0.49346,0.202152 z"
       id="path64"
       inkscape:connector-curvature="0"
       style="fill:#ffffff;stroke-width:0.0661"
       sodipodi:nodetypes="ccsccccccccccccscccccccccccccccccccccccccscccscccccccccccccccccccccccccccccscccccccccccscccccccccccsccccccccccscccscccccccccccccsccccccccccccccsccccsccccccscsccccccccccscccscccccccccccccccccccccccccccccccccccccccccscccccccccccccccccccccccccsccsccccccccccccscccccccccscccscccsccccccccccccccccccccccccccccccccccccccccccccccccccccccccccccscccccccccccccccccc" />
  </g>
</svg>
